<svg width="161" height="165" viewBox="0 0 161 165" fill="none" xmlns="http://www.w3.org/2000/svg">
<g clip-path="url(#clip0_408_17)">
<path d="M62.9979 65.3667C63.261 72.5975 38.4712 75.5594 33.6477 76.4306C29.2042 77.2437 -3.39095 79.3636 5.93448 67.8931C12.512 59.8203 26.6024 57.8166 36.2787 57.8456C42.5638 57.8456 60.7762 57.6423 63.0564 65.7733C63.5826 67.6608 66.5351 66.8477 66.0089 64.9602C62.9687 54.0415 42.1253 54.5932 33.5015 54.8256C25.4623 55.0288 17.8324 56.8873 10.7872 60.8076C7.24998 62.7823 1.14021 66.1798 0.555548 70.7099C-1.02305 82.9354 25.0531 80.7574 31.2213 79.8863C39.7867 78.6957 49.2583 76.692 57.5605 74.1075C62.0332 72.7136 66.2428 70.5647 66.0382 65.3667C65.9797 63.4211 62.9102 63.3921 62.9687 65.3667H62.9979Z" fill="#F8F7FF"/>
<path d="M2.10479 70.1873C-4.88316e-06 77.1276 -2.16327 86.4491 4.41423 91.8504C10.9917 97.2517 23.0066 93.4185 30.6073 92.6345C36.8047 91.9956 43.0022 91.3567 49.1997 90.7179C53.0877 90.3113 57.9989 90.4565 61.4484 88.1915C68.5814 83.5452 67.0028 74.2237 65.0441 67.3414C64.5179 65.4539 61.5654 66.267 62.0916 68.1545C63.2317 72.191 64.5179 76.3435 62.9686 80.4671C60.7761 86.2749 54.8417 87.088 49.1704 87.6688C42.973 88.3076 36.7755 88.9465 30.578 89.5854C25.1991 90.1371 19.294 91.5891 13.9151 91.2696C0.90623 90.4275 2.33866 79.9734 5.05736 71.0004C5.64202 69.1128 2.66023 68.3288 2.10479 70.1873Z" fill="#F8F7FF"/>
<path d="M1.4909 88.3948C-0.964697 94.2026 -0.321564 100.678 3.1572 105.963C4.23883 107.59 6.89907 106.08 5.7882 104.424C2.7187 99.7491 2.25097 94.3478 4.41423 89.2079C5.1743 87.4075 2.22173 86.6234 1.46167 88.3948H1.4909Z" fill="#F8F7FF"/>
<path d="M4.50193 107.938C24.9945 109.942 45.2532 107.473 64.6349 100.533C66.4766 99.8652 65.6873 96.9323 63.8163 97.6002C44.6977 104.424 24.7314 106.893 4.50193 104.889C2.5433 104.686 2.5433 107.735 4.50193 107.938Z" fill="#F8F7FF"/>
<path d="M63.2025 84.6774C65.1027 89.3818 65.4827 94.2313 64.2549 99.1679C63.7872 101.055 66.7397 101.869 67.2075 99.981C68.5522 94.5507 68.2306 89.0623 66.1551 83.8643C65.4242 82.0639 62.4717 82.848 63.2025 84.6774Z" fill="#F8F7FF"/>
<path d="M2.80649 105.556C-0.438404 109.738 0.0877953 115.749 3.71273 119.495C5.08669 120.918 7.24996 118.769 5.87599 117.346C3.09883 114.471 3.06959 110.203 5.46673 107.096C6.66529 105.556 4.00506 104.017 2.83573 105.556H2.80649Z" fill="#F8F7FF"/>
<path d="M4.12181 120.425C15.8444 122.312 27.4792 122.544 39.2603 121.063C41.1897 120.831 41.2189 117.782 39.2603 118.014C27.7716 119.466 16.3998 119.321 4.94035 117.492C3.01095 117.172 2.19241 120.105 4.12181 120.425Z" fill="#F8F7FF"/>
<path d="M64.3426 100.039L64.898 105.121C64.9857 105.934 65.5412 106.631 66.4181 106.631C67.1782 106.631 68.0552 105.934 67.9383 105.121C67.7629 103.437 67.5582 101.753 67.3828 100.039C67.2951 99.2262 66.7397 98.5293 65.8627 98.5293C65.1027 98.5293 64.2257 99.2262 64.3426 100.039Z" fill="#F8F7FF"/>
<path d="M3.56651 117.695C0.935512 122.602 0.935512 128.178 3.56651 133.085C4.50198 134.828 7.13297 133.289 6.19751 131.546C4.12194 127.626 4.12194 123.154 6.19751 119.234C7.13297 117.491 4.47274 115.952 3.56651 117.695Z" fill="#F8F7FF"/>
<path d="M5.67117 132.911C17.8615 134.334 29.8471 133.783 41.862 131.314C43.7914 130.908 42.9729 127.975 41.0435 128.381C29.2917 130.792 17.5691 131.256 5.67117 129.862C3.71253 129.63 3.74177 132.679 5.67117 132.911Z" fill="#F8F7FF"/>
<path d="M3.21567 131.924C0.93547 135.903 1.1401 140.868 3.9465 144.556C5.11583 146.095 7.77607 144.556 6.60673 143.017C4.44347 140.171 4.09267 136.599 5.8759 133.463C6.8406 131.75 4.2096 130.211 3.2449 131.924H3.21567Z" fill="#F8F7FF"/>
<path d="M5.84667 145.573C17.5108 148.186 30.2857 148.564 41.8621 145.456C43.7623 144.934 42.9437 142.001 41.0436 142.524C30.0519 145.456 17.7154 145.108 6.6652 142.64C4.7358 142.204 3.91727 145.137 5.84667 145.573Z" fill="#F8F7FF"/>
<path d="M3.97575 144.614C2.28022 148.97 2.68948 153.675 4.96968 157.74C5.93438 159.453 8.59461 157.914 7.62991 156.201C5.70051 152.803 5.52512 149.057 6.95755 145.427C7.65915 143.598 4.70658 142.814 4.00498 144.614H3.97575Z" fill="#F8F7FF"/>
<path d="M6.25602 158.495C17.7447 161.66 30.2858 161.66 41.8622 158.989C43.7916 158.553 42.9731 155.62 41.0437 156.056C30.0227 158.582 17.9786 158.553 7.04532 155.562C5.14515 155.039 4.32662 157.972 6.22678 158.495H6.25602Z" fill="#F8F7FF"/>
<path d="M41.8329 116.04C39.4358 121.847 39.7866 128.091 42.6515 133.666C43.5577 135.409 46.1887 133.87 45.2825 132.127C42.7684 127.22 42.6807 121.876 44.7563 116.824C45.5163 115.023 42.5345 114.239 41.8037 116.011L41.8329 116.04Z" fill="#F8F7FF"/>
<path d="M43.7331 135.234C63.8164 138.138 83.7828 136.135 102.814 129.136C104.655 128.468 103.866 125.535 101.995 126.203C83.5197 132.969 64.0503 135.089 44.5517 132.301C42.6223 132.011 41.8037 134.944 43.7331 135.234Z" fill="#F8F7FF"/>
<path d="M102.346 115.808V127.655C102.346 129.601 105.415 129.63 105.415 127.655V115.808C105.415 113.862 102.346 113.833 102.346 115.808Z" fill="#F8F7FF"/>
<path d="M42.0668 132.127C38.8804 136.628 38.7342 142.494 41.5991 147.199C42.6222 148.883 45.2825 147.344 44.2301 145.66C41.8622 141.826 42.096 137.325 44.6978 133.666C45.8379 132.069 43.1777 130.53 42.0668 132.127Z" fill="#F8F7FF"/>
<path d="M42.2129 148.157C63.2024 151.061 84.1042 149.58 104.421 143.627C106.322 143.075 105.503 140.142 103.603 140.694C83.8411 146.502 63.4363 148.07 43.0314 145.224C41.102 144.963 40.2835 147.895 42.2129 148.157Z" fill="#F8F7FF"/>
<path d="M101.82 129.746C102.872 134.218 102.784 138.661 101.586 143.104C101.089 144.992 104.041 145.805 104.538 143.917C105.883 138.952 105.941 133.957 104.772 128.933C104.334 127.017 101.381 127.83 101.82 129.746Z" fill="#F8F7FF"/>
<path d="M41.1897 147.141C38.8803 151.932 39.1726 157.421 42.2713 161.776C43.3822 163.374 46.0424 161.864 44.9023 160.237C42.476 156.782 41.9498 152.513 43.8207 148.68C44.6685 146.908 42.0375 145.369 41.1897 147.141Z" fill="#F8F7FF"/>
<path d="M43.2944 163.17C62.9684 166.278 82.584 164.738 101.469 158.466C103.34 157.856 102.521 154.894 100.65 155.533C82.3209 161.631 63.2023 163.257 44.113 160.237C42.1836 159.918 41.365 162.851 43.2944 163.17Z" fill="#F8F7FF"/>
<path d="M101.79 144.963C102.404 148.97 101.79 152.861 100.212 156.578C99.4518 158.379 102.404 159.163 103.164 157.391C104.977 153.152 105.415 148.709 104.743 144.149C104.451 142.233 101.498 143.046 101.79 144.963Z" fill="#F8F7FF"/>
<path d="M102.96 113.717C101.995 118.392 91.5589 119.438 87.817 120.134C80.5087 121.47 72.9957 122.516 65.5412 122.719C61.8578 122.806 43.7624 123.358 45.4872 116.272C45.7795 115.082 47.855 113.775 48.7028 113.165C57.3851 106.893 70.5109 106.312 80.7133 106.37C85.5368 106.37 102.375 106.37 102.901 114.152C103.018 116.098 106.088 116.098 105.971 114.152C105.328 104.57 89.9803 103.582 83.1104 103.379C71.4171 103.001 52.5908 103.379 44.0547 113.194C34.7878 123.793 56.7127 125.768 62.7348 125.826C72.4695 125.913 82.6427 124.519 92.1435 122.4C96.5578 121.412 104.831 119.96 105.912 114.559C106.292 112.642 103.34 111.829 102.96 113.746V113.717Z" fill="#F8F7FF"/>
<path d="M8.3023 79.7701C8.5654 83.3419 8.79927 86.9137 9.06237 90.4565C9.15007 91.7632 11.1964 91.7632 11.1087 90.4565C10.8456 86.8847 10.6117 83.3129 10.3486 79.7701C10.2609 78.4633 8.2146 78.4633 8.3023 79.7701Z" fill="#F8F7FF"/>
<path d="M14.5289 80.5539C15.0843 83.9515 15.6397 87.32 16.1952 90.7176C16.3998 91.9953 18.3877 91.4436 18.1538 90.1658C17.5984 86.7683 17.0429 83.3997 16.4875 80.0022C16.2829 78.7244 14.295 79.2762 14.5289 80.5539Z" fill="#F8F7FF"/>
<path d="M24.5561 80.2925C24.1468 84.1837 24.8192 87.9297 26.3978 91.5015C26.924 92.6921 28.678 91.6758 28.1518 90.4852C26.7193 87.2328 26.2224 83.8062 26.6024 80.2925C26.7486 78.9857 24.7022 79.0147 24.5561 80.2925Z" fill="#F8F7FF"/>
<path d="M32.9459 80.0314C33.5305 83.2257 34.1152 86.42 34.6706 89.6143C34.9045 90.8921 36.8631 90.3403 36.6293 89.0626C36.0446 85.8683 35.4599 82.674 34.9045 79.4797C34.6706 78.202 32.712 78.7537 32.9459 80.0314Z" fill="#F8F7FF"/>
<path d="M42.6221 78.0567C42.7975 81.0768 42.9729 84.0678 43.1483 87.0879C43.236 88.3946 45.2531 88.3946 45.1946 87.0879C45.0192 84.0678 44.8438 81.0768 44.6684 78.0567C44.5807 76.75 42.5636 76.75 42.6221 78.0567Z" fill="#F8F7FF"/>
<path d="M52.6199 75.2398C52.6199 79.1891 52.6199 83.1385 52.6491 87.0878C52.6491 88.3945 54.6954 88.3945 54.6954 87.0878C54.6954 83.1385 54.6954 79.1891 54.6662 75.2398C54.6662 73.9331 52.6199 73.9331 52.6199 75.2398Z" fill="#F8F7FF"/>
<path d="M5.9344 94.0861C6.51906 97.6579 7.07449 101.23 7.65916 104.802C7.86379 106.079 9.82243 105.528 9.61779 104.25C9.03313 100.678 8.47769 97.1062 7.89303 93.5344C7.68839 92.2567 5.72976 92.8084 5.9344 94.0861Z" fill="#F8F7FF"/>
<path d="M13.2134 94.4058C13.0088 98.5584 13.5935 102.595 14.9382 106.515C15.3767 107.735 17.3353 107.212 16.8968 105.963C15.5813 102.188 15.0259 98.3842 15.2305 94.4058C15.289 93.0991 13.2427 93.0991 13.1842 94.4058H13.2134Z" fill="#F8F7FF"/>
<path d="M22.0419 93.3022C22.6266 97.8033 23.2405 102.304 23.8251 106.805C24.0005 108.083 26.0469 108.112 25.8715 106.805C25.2868 102.304 24.6729 97.8033 24.0882 93.3022C23.9128 92.0245 21.8665 91.9955 22.0419 93.3022Z" fill="#F8F7FF"/>
<path d="M30.578 91.618C31.1627 95.9448 31.7474 100.243 32.332 104.569C32.5074 105.847 34.5538 105.847 34.3784 104.569C33.7937 100.243 33.209 95.9448 32.6244 91.618C32.449 90.3402 30.4026 90.3402 30.578 91.618Z" fill="#F8F7FF"/>
<path d="M40.1082 91.589C40.1374 96.4675 40.1666 101.346 40.2251 106.254C40.2251 107.56 42.2714 107.56 42.2714 106.254C42.2422 101.375 42.213 96.4966 42.1545 91.589C42.1545 90.2822 40.1082 90.2822 40.1082 91.589Z" fill="#F8F7FF"/>
<path d="M48.381 91.0083L49.5211 102.275C49.6381 103.553 51.6844 103.582 51.5675 102.275C51.1874 98.5294 50.8074 94.7543 50.4274 91.0083C50.3104 89.7306 48.2641 89.7015 48.381 91.0083Z" fill="#F8F7FF"/>
<path d="M56.2449 88.7721C56.4203 92.3439 56.6249 95.9157 56.8003 99.4875C56.8588 100.794 58.9051 100.794 58.8466 99.4875C58.6712 95.9157 58.4666 92.3439 58.2912 88.7721C58.2327 87.4653 56.1864 87.4653 56.2449 88.7721Z" fill="#F8F7FF"/>
<path d="M8.71164 108.49C8.18544 112.41 8.53624 116.272 9.76404 120.047C10.1733 121.296 12.1319 120.744 11.7227 119.496C10.5533 115.895 10.2318 112.236 10.758 108.461C10.9334 107.183 8.88704 107.183 8.71164 108.461V108.49Z" fill="#F8F7FF"/>
<path d="M17.7447 109.041C17.2477 112.787 17.657 116.446 18.914 120.018C19.3525 121.238 21.3111 120.715 20.8726 119.466C19.6741 116.069 19.294 112.613 19.7618 109.041C19.9372 107.764 17.8908 107.764 17.7154 109.041H17.7447Z" fill="#F8F7FF"/>
<path d="M25.17 108.199C25.7547 111.945 26.3393 115.721 26.924 119.467C27.1286 120.744 29.0873 120.193 28.8826 118.915C28.298 115.169 27.7133 111.394 27.1286 107.648C26.924 106.37 24.9654 106.922 25.17 108.199Z" fill="#F8F7FF"/>
<path d="M33.443 108.46C32.9753 112.41 33.443 116.272 34.8754 120.018C35.3432 121.238 37.3018 120.715 36.8341 119.466C35.4893 115.894 35.0508 112.235 35.4893 108.46C35.6355 107.154 33.5892 107.183 33.443 108.46Z" fill="#F8F7FF"/>
<path d="M41.716 107.328C42.1252 110.9 42.5053 114.472 42.9145 118.044C43.0607 119.321 45.107 119.35 44.9609 118.044C44.5516 114.472 44.1716 110.9 43.7623 107.328C43.6161 106.05 41.5698 106.021 41.716 107.328Z" fill="#F8F7FF"/>
<path d="M50.7491 103.727C50.106 106.138 50.486 108.635 51.8308 110.755C52.5324 111.858 54.2864 110.842 53.5848 109.738C52.5324 108.054 52.2108 106.196 52.7078 104.279C53.0293 103.001 51.0707 102.479 50.7491 103.727Z" fill="#F8F7FF"/>
<path d="M58.6128 102.275V105.092C58.6128 106.399 60.6591 106.399 60.6591 105.092V102.275C60.6591 100.969 58.6128 100.969 58.6128 102.275Z" fill="#F8F7FF"/>
<path d="M6.51905 118.479C6.72368 122.574 6.92832 126.668 7.13295 130.763C7.19142 132.069 9.23775 132.069 9.17928 130.763C8.97465 126.668 8.77002 122.574 8.56538 118.479C8.50692 117.172 6.46058 117.172 6.51905 118.479Z" fill="#F8F7FF"/>
<path d="M13.3011 120.337C12.7164 124.141 13.038 127.858 14.3827 131.488C14.8504 132.708 16.8091 132.185 16.3413 130.937C15.1135 127.684 14.7335 124.316 15.2597 120.86C15.4643 119.582 13.5057 119.031 13.3011 120.308V120.337Z" fill="#F8F7FF"/>
<path d="M20.2002 121.441C20.2002 124.693 20.2294 127.917 20.2587 131.169C20.2587 132.476 22.305 132.476 22.305 131.169C22.305 127.917 22.2758 124.693 22.2465 121.441C22.2465 120.134 20.2002 120.134 20.2002 121.441Z" fill="#F8F7FF"/>
<path d="M25.9885 121.877C25.9008 125.129 26.3393 128.323 27.304 131.459C27.684 132.708 29.6719 132.185 29.2626 130.908C28.3564 127.946 27.9471 124.955 28.0348 121.877C28.0641 120.57 26.0177 120.57 25.9885 121.877Z" fill="#F8F7FF"/>
<path d="M33.1213 120.599C33.4428 123.968 33.7352 127.365 34.0567 130.734C34.1737 132.011 36.22 132.04 36.1031 130.734C35.7815 127.365 35.4892 123.968 35.1676 120.599C35.0507 119.321 33.0043 119.292 33.1213 120.599Z" fill="#F8F7FF"/>
<path d="M9.38379 132.854V142.146C9.38379 143.453 11.4301 143.453 11.4301 142.146V132.854C11.4301 131.547 9.38379 131.547 9.38379 132.854Z" fill="#F8F7FF"/>
<path d="M15.9322 133.028C15.3183 136.977 15.5229 140.839 16.5753 144.672C16.9261 145.921 18.8847 145.398 18.5339 144.121C17.5692 140.636 17.3354 137.122 17.8908 133.55C18.0954 132.273 16.1076 131.721 15.9322 132.999V133.028Z" fill="#F8F7FF"/>
<path d="M21.7787 133.289C22.188 136.803 22.6265 140.346 23.0357 143.859C23.1819 145.137 25.2282 145.166 25.0821 143.859C24.6728 140.346 24.2343 136.803 23.825 133.289C23.6789 132.011 21.6325 131.982 21.7787 133.289Z" fill="#F8F7FF"/>
<path d="M28.1517 133.87C27.6255 137.703 28.1809 141.333 29.9057 144.818C30.4903 145.979 32.2443 144.963 31.6597 143.801C30.198 140.868 29.6718 137.674 30.1103 134.422C30.2857 133.144 28.3271 132.592 28.1517 133.87Z" fill="#F8F7FF"/>
<path d="M35.3431 132.011C35.6354 135.67 35.8985 139.329 36.1908 142.988C36.2785 144.295 38.3249 144.295 38.2372 142.988C37.9448 139.329 37.6817 135.67 37.3894 132.011C37.3017 130.705 35.2554 130.705 35.3431 132.011Z" fill="#F8F7FF"/>
<path d="M10.3778 145.718C9.70546 149.522 9.96856 153.268 11.1671 156.927C11.5764 158.146 13.5643 157.624 13.1258 156.375C12.0149 153.065 11.7226 149.696 12.3072 146.24C12.5411 144.963 10.5532 144.411 10.3486 145.689L10.3778 145.718Z" fill="#F8F7FF"/>
<path d="M16.3415 145.95C16.5754 150.48 17.1893 154.952 18.1247 159.395C18.3878 160.673 20.3757 160.121 20.0834 158.843C19.1771 154.574 18.5925 150.306 18.3586 145.95C18.3001 144.643 16.2538 144.643 16.3123 145.95H16.3415Z" fill="#F8F7FF"/>
<path d="M23.0066 146.821C22.6558 151.119 23.2405 155.301 24.7606 159.337C25.2284 160.557 27.187 160.034 26.7193 158.785C25.2576 154.894 24.7022 150.916 25.053 146.792C25.1699 145.485 23.1236 145.485 23.0066 146.792V146.821Z" fill="#F8F7FF"/>
<path d="M31.0749 146.821C30.8118 150.625 31.1041 154.372 31.9519 158.089C32.2442 159.366 34.2029 158.815 33.9105 157.537C33.092 153.994 32.8289 150.451 33.092 146.821C33.1797 145.515 31.1334 145.515 31.0457 146.821H31.0749Z" fill="#F8F7FF"/>
<path d="M37.0678 145.108C36.834 148.941 37.214 152.687 38.2372 156.404C38.588 157.653 40.5466 157.13 40.1958 155.852C39.2019 152.31 38.8511 148.767 39.0849 145.108C39.1726 143.801 37.1263 143.801 37.0386 145.108H37.0678Z" fill="#F8F7FF"/>
<path d="M46.5101 121.615C45.8962 125.42 46.1886 129.137 47.5041 132.795C47.9426 134.015 49.9304 133.492 49.4627 132.244C48.2641 128.962 47.8841 125.594 48.4688 122.167C48.6734 120.889 46.7148 120.338 46.5101 121.615Z" fill="#F8F7FF"/>
<path d="M53.8477 123.997C53.8477 127.51 53.8477 131.053 53.8477 134.567C53.8477 135.874 55.894 135.874 55.894 134.567C55.894 131.053 55.894 127.51 55.894 123.997C55.894 122.69 53.8477 122.69 53.8477 123.997Z" fill="#F8F7FF"/>
<path d="M59.9576 124.838C60.0745 127.946 60.1622 131.053 60.2792 134.131C60.3376 135.438 62.3547 135.438 62.3255 134.131C62.2086 131.024 62.1209 127.917 62.0039 124.838C61.9455 123.532 59.9284 123.532 59.9576 124.838Z" fill="#F8F7FF"/>
<path d="M68.4644 125.245C68.6105 127.655 68.7275 130.037 68.8736 132.418C68.9613 133.725 70.9784 133.725 70.92 132.418C70.7738 130.037 70.6569 127.626 70.5107 125.245C70.423 123.938 68.4059 123.938 68.4644 125.245Z" fill="#F8F7FF"/>
<path d="M77.6729 123.997C77.6729 126.813 77.6729 129.63 77.7021 132.447C77.7021 133.754 79.7484 133.754 79.7484 132.447V123.997C79.7192 122.69 77.6729 122.69 77.6729 123.997Z" fill="#F8F7FF"/>
<path d="M83.5195 123.125C83.6364 125.942 83.2856 128.759 83.4318 131.575C83.4902 132.882 85.5366 132.882 85.4781 131.575C85.3612 128.759 85.712 125.942 85.5658 123.125C85.5073 121.818 83.461 121.818 83.5195 123.125Z" fill="#F8F7FF"/>
<path d="M91.1787 120.599C91.0326 123.706 90.8864 126.813 90.7402 129.891C90.6818 131.198 92.7281 131.198 92.7866 129.891C92.9327 126.784 93.0789 123.677 93.2251 120.599C93.2835 119.292 91.2372 119.292 91.1787 120.599Z" fill="#F8F7FF"/>
<path d="M97.7854 121.005C97.6684 123.125 97.5223 125.245 97.4053 127.336C97.3176 128.643 99.364 128.643 99.4517 127.336C99.5686 125.216 99.7148 123.096 99.8317 121.005C99.9194 119.699 97.8731 119.699 97.7854 121.005Z" fill="#F8F7FF"/>
<path d="M46.5688 134.973C46.3349 139.329 46.1303 143.685 45.8964 148.041C45.8672 148.796 46.8027 149.348 47.4458 148.912C47.7674 148.68 48.1182 148.476 48.4397 148.244C49.5214 147.518 48.4982 145.747 47.4166 146.502C47.095 146.734 46.7442 146.937 46.4226 147.17C46.9488 147.46 47.4458 147.75 47.972 148.041C48.2059 143.685 48.4105 139.329 48.6444 134.973C48.7028 133.666 46.6565 133.666 46.598 134.973H46.5688Z" fill="#F8F7FF"/>
<path d="M53.38 135.583C52.7077 139.387 52.9415 143.133 54.1693 146.792C54.5786 148.041 56.5372 147.489 56.128 146.24C55.0463 142.93 54.754 139.561 55.3387 136.106C55.5725 134.828 53.5847 134.276 53.38 135.554V135.583Z" fill="#F8F7FF"/>
<path d="M60.9806 135.989C59.8697 139.706 60.0159 143.569 61.5068 147.169C62.0038 148.36 63.9624 147.837 63.4654 146.618C62.0914 143.307 61.9161 139.939 62.9392 136.512C63.3192 135.263 61.3314 134.712 60.9806 135.96V135.989Z" fill="#F8F7FF"/>
<path d="M69.0198 135.554C68.0258 139.126 68.3766 142.698 69.926 146.066C70.4814 147.257 72.2354 146.211 71.68 145.05C70.3353 142.204 70.1306 139.126 70.9784 136.106C71.3292 134.857 69.3706 134.305 69.0198 135.554Z" fill="#F8F7FF"/>
<path d="M78.3162 134.131V146.821C78.3162 148.128 80.3625 148.128 80.3625 146.821V134.131C80.3625 132.824 78.3162 132.824 78.3162 134.131Z" fill="#F8F7FF"/>
<path d="M85.9752 133.289C86.2675 137.093 86.5306 140.897 86.8229 144.702C86.9106 146.008 88.9569 146.008 88.8692 144.702C88.5769 140.897 88.3138 137.093 88.0215 133.289C87.9338 131.982 85.8875 131.982 85.9752 133.289Z" fill="#F8F7FF"/>
<path d="M93.8096 132.011L94.1312 142.582C94.1604 143.888 96.2068 143.888 96.1775 142.582C96.0606 139.068 95.9437 135.525 95.856 132.011C95.8267 130.705 93.7804 130.705 93.8096 132.011Z" fill="#F8F7FF"/>
<path d="M45.6625 147.664C45.1655 152.136 45.4579 156.724 45.9841 161.167C46.1302 162.444 48.1766 162.473 48.0304 161.167C47.5042 156.724 47.2119 152.107 47.7088 147.664C47.855 146.357 45.8087 146.386 45.6625 147.664Z" fill="#F8F7FF"/>
<path d="M53.2631 148.651C52.3569 153.587 52.6492 158.466 54.2571 163.228C54.6663 164.448 56.6542 163.925 56.2157 162.677C54.7248 158.263 54.374 153.762 55.2218 149.174C55.4556 147.896 53.497 147.344 53.2631 148.622V148.651Z" fill="#F8F7FF"/>
<path d="M61.3314 148.244C60.396 153.326 60.7468 158.321 62.5008 163.199C62.9393 164.419 64.9271 163.896 64.4594 162.647C62.8223 158.117 62.4131 153.5 63.2901 148.767C63.5239 147.489 61.5653 146.937 61.3314 148.215V148.244Z" fill="#F8F7FF"/>
<path d="M70.5986 149.348C70.0431 154.371 70.8617 159.221 72.9665 163.809C73.4927 165 75.2759 163.954 74.7205 162.793C72.7911 158.524 72.1187 153.994 72.6449 149.348C72.7911 148.041 70.7447 148.07 70.5986 149.348Z" fill="#F8F7FF"/>
<path d="M78.6376 148.505C79.0469 152.861 79.4562 157.246 79.8654 161.602C79.9824 162.88 82.0287 162.909 81.9118 161.602L80.684 148.505C80.567 147.228 78.5207 147.199 78.6376 148.505Z" fill="#F8F7FF"/>
<path d="M86.326 148.505C86.4429 152.6 86.5599 156.694 86.6768 160.76C86.706 162.067 88.7524 162.067 88.7231 160.76C88.6062 156.665 88.4893 152.6 88.3723 148.505C88.3431 147.199 86.2968 147.199 86.326 148.505Z" fill="#F8F7FF"/>
<path d="M91.9387 146.821V158.669C91.9387 159.976 93.9851 159.976 93.9851 158.669V146.821C93.9851 145.515 91.9387 145.515 91.9387 146.821Z" fill="#F8F7FF"/>
<path d="M97.0837 145.544C97.2299 148.912 97.3761 152.31 97.5223 155.678C97.5807 156.985 99.6271 156.985 99.5686 155.678C99.4224 152.31 99.2762 148.912 99.1301 145.544C99.0716 144.237 97.0253 144.237 97.0837 145.544Z" fill="#F8F7FF"/>
<path d="M97.8732 130.763C98.3702 135.119 98.8671 139.474 99.3933 143.83C99.5395 145.108 101.586 145.137 101.44 143.83C100.943 139.474 100.446 135.119 99.9195 130.763C99.7734 129.485 97.727 129.456 97.8732 130.763Z" fill="#F8F7FF"/>
<path d="M13.4474 66.1795C10.5533 68.7931 12.775 72.1906 15.9907 73.0908C22.7144 74.9784 30.8412 73.8749 37.5356 72.3939C39.0265 72.0745 38.4126 69.7804 36.8925 70.0998C33.2383 70.8839 29.5842 71.4066 25.8423 71.4647C24.3807 71.4647 22.8898 71.4647 21.4281 71.3775C20.5803 71.3195 12.3658 70.3031 15.1137 67.8348C16.2538 66.8184 14.5583 65.1341 13.4182 66.1505L13.4474 66.1795Z" fill="#F8F7FF"/>
<path d="M35.8984 62.5787C41.9789 62.0269 47.7379 63.1304 53.1461 65.9472C54.4908 66.6732 55.7186 64.6114 54.3446 63.9145C48.6149 60.8944 42.3882 59.6167 35.8984 60.2265C34.3783 60.3717 34.3783 62.7239 35.8984 62.6077V62.5787Z" fill="#F8F7FF"/>
<path d="M53.877 113.513C47.4457 124.054 81.9702 117.637 85.5659 116.795C87.0568 116.446 86.4137 114.181 84.9228 114.501C79.9823 115.633 75.0419 116.475 69.9845 116.911C69.1952 116.969 54.0524 117.782 55.9233 114.675C56.7126 113.368 54.6663 112.178 53.877 113.484V113.513Z" fill="#F8F7FF"/>
<path d="M76.7959 110.406C83.1103 110 89.2493 110.755 95.2421 112.758C96.7038 113.252 97.3176 110.958 95.8852 110.464C89.6585 108.432 83.3441 107.618 76.7959 108.025C75.2757 108.112 75.2757 110.493 76.7959 110.406Z" fill="#F8F7FF"/>
</g>
<path d="M126.658 70.7217C128.69 73.6771 131.797 77.2931 135.791 76.3433C140.132 75.3104 143.724 70.2598 146.39 67.0297C145.308 66.1383 144.235 65.2433 143.157 64.3616C140.72 67.6739 135.397 72.4172 135.001 76.7238C134.862 78.2432 135.636 79.5599 136.436 80.7669C138.245 83.4815 140.527 85.822 142.319 88.6097C143.645 87.3646 144.97 86.1195 146.3 84.8842C143.322 82.0994 139.249 76.2813 134.881 75.9781C130.378 75.6692 125.967 81.7448 123.26 84.623C124.775 85.8776 126.304 87.1383 127.829 88.3893C130.166 85.5588 133.53 81.6935 133.664 77.8174C133.804 73.9279 131.121 69.3879 128.309 66.9315C127.337 68.1131 126.375 69.291 125.403 70.4726C127.988 72.4341 131.004 74.4816 133.163 76.9116C133.482 75.882 133.787 74.8461 134.106 73.8164C133.395 74.0228 132.688 74.239 131.977 74.4455C129.679 75.1259 130.434 78.196 132.36 78.7317C134.287 79.2674 135.682 79.1426 137.443 78.2375L135.153 73.92C133.525 74.887 132.619 75.9774 131.715 77.6125C130.005 80.7013 135.459 83.2294 136.674 79.9113C137.127 79.244 137.573 78.59 138.025 77.9227C140.558 75.9543 137.856 72.3227 135.149 73.9102C134.473 74.0594 133.802 74.1953 133.126 74.3446C133.255 75.7766 133.38 77.1988 133.509 78.6309C134.173 78.2971 134.84 77.9732 135.504 77.6394C136.703 77.0419 137.535 75.0888 136.092 74.1522C133.322 72.3811 130.914 69.7871 128.702 67.3652C127.071 65.586 123.699 66.8734 124.696 69.4872C125.523 71.6408 127.493 73.796 127.825 76.0206C128.36 79.5167 126.126 81.9645 123.795 84.0918C121.014 86.6189 124.434 91.4765 127.244 88.9056C128.736 87.5432 133.107 81.9605 134.614 82.1393C136.685 82.3768 141.245 87.7709 142.784 89.1172C145.454 91.4591 148.923 87.2209 146.269 84.862C143.504 82.4108 138.912 79.3977 140.546 75.2912C141.676 72.461 144.611 69.5099 146.363 67.0173C147.899 64.8382 144.916 62.2781 143.13 64.3492C141.461 66.288 139.184 69.0409 136.89 70.2427C133.501 72.0258 131.84 70.2244 129.257 68.2397C127.633 66.9917 125.426 68.9732 126.622 70.7128L126.658 70.7217Z" fill="#F8F7FF"/>
<path d="M132.392 28.2158C134.424 31.1712 137.53 34.7872 141.525 33.8374C145.866 32.8045 149.457 27.7539 152.124 24.5238C151.041 23.6324 149.969 22.7374 148.89 21.8558C146.453 25.168 141.13 29.9113 140.734 34.218C140.596 35.7373 141.369 37.054 142.169 38.261C143.979 40.9756 146.26 43.3161 148.053 46.1038C149.378 44.8587 150.704 43.6137 152.033 42.3784C149.056 39.5936 144.982 33.7754 140.614 33.4723C136.111 33.1633 131.701 39.239 128.993 42.1171C130.508 43.3717 132.037 44.6325 133.563 45.8835C135.9 43.0529 139.263 39.1877 139.397 35.3115C139.537 31.422 136.855 26.8821 134.043 24.4256C133.071 25.6072 132.108 26.7852 131.136 27.9667C133.721 29.9283 136.737 31.9758 138.897 34.4058C139.215 33.3761 139.521 32.3402 139.839 31.3105C139.129 31.517 138.421 31.7332 137.711 31.9396C135.412 32.6201 136.167 35.6902 138.094 36.2259C140.02 36.7616 141.415 36.6367 143.176 35.7316C142.412 34.2892 141.647 32.8467 140.886 31.4141C139.259 32.3812 138.353 33.4716 137.448 35.1066C135.738 38.1954 141.193 40.7235 142.408 37.4054C142.86 36.7381 143.306 36.0842 143.758 35.4168C146.292 33.4485 143.589 29.8169 140.883 31.4043C140.206 31.5536 139.536 31.6895 138.859 31.8387C138.988 33.2707 139.113 34.693 139.242 36.125C139.906 35.7913 140.574 35.4673 141.238 35.1335C142.436 34.536 143.268 32.583 141.825 31.6464C139.055 29.8753 136.647 27.2812 134.435 24.8594C132.804 23.0801 129.433 24.3675 130.429 26.9814C131.257 29.1349 133.226 31.2901 133.558 33.5148C134.093 37.0108 131.859 39.4586 129.529 41.5859C126.747 44.113 130.167 48.9706 132.977 46.3997C134.47 45.0373 138.841 39.4547 140.347 39.6334C142.419 39.8709 146.979 45.265 148.517 46.6113C151.187 48.9532 154.657 44.715 152.003 42.3562C149.237 39.905 144.646 36.8919 146.28 32.7853C147.409 29.9551 150.344 27.0041 152.097 24.5114C153.632 22.3324 150.649 19.7722 148.863 21.8434C147.195 23.7822 144.918 26.535 142.623 27.7369C139.235 29.5199 137.573 27.7185 134.991 25.7338C133.367 24.4858 131.16 26.4673 132.355 28.207L132.392 28.2158Z" fill="#F8F7FF"/>
<path d="M76.8626 15.4695C79.8534 19.3729 84.2445 24.9405 89.8409 23.645C96.3552 22.1335 101.983 14.3076 106.017 9.52747C104.935 8.63604 103.863 7.74102 102.784 6.85938C100.15 10.478 97.5023 14.0904 94.8683 17.709C93.2769 19.8865 90.9807 22.257 90.4876 25.0085C89.9594 27.9954 91.4353 29.9543 93.1972 32.2082C96.0684 35.8776 98.9493 39.5434 101.819 43.1798C103.145 41.9347 104.47 40.6896 105.796 39.4445C102.284 36.2006 98.7835 32.9299 95.2455 29.7066C93.1459 27.7996 91.2693 25.8661 88.2563 25.9311C85.398 25.9948 83.3553 27.7601 81.3658 29.6394C78.1719 32.6412 74.9934 35.7151 71.9898 38.9026C73.5053 40.1572 75.0342 41.418 76.5496 42.6726C80.1085 38.6463 85.2768 32.7919 85.4735 27.1016C85.6541 21.7287 81.7243 14.5561 77.7877 11.1238C76.8156 12.3053 75.8533 13.4833 74.8812 14.6648C79 17.9299 83.5776 21.2372 87.1555 25.0799C87.4742 24.0502 87.7796 23.0143 88.0983 21.9846C87.0007 22.3448 85.9068 22.7147 84.8092 23.0748C82.536 23.8238 83.2415 26.7898 85.1923 27.3611C88.223 28.2462 90.3476 27.7855 93.0384 26.2151C92.0798 24.8776 91.1212 23.5401 90.1626 22.2026C87.8723 23.5364 86.5051 25.1195 85.3682 27.5076C83.8404 30.7295 89.1443 33.0905 90.3278 29.8064C90.6622 28.248 91.5613 27.0489 93.0286 26.2187C95.6462 24.4194 92.8101 20.5146 90.1529 22.2062C88.7525 22.4665 87.3522 22.7269 85.9518 22.9873C86.0807 24.4193 86.206 25.8415 86.3349 27.2735C87.3891 26.7959 88.4398 26.3085 89.494 25.8309C90.7459 25.2581 91.4682 23.2787 90.0816 22.3437C85.5527 19.3188 81.5246 15.097 77.7718 11.1407C76.1669 9.46304 73.3598 11.7104 74.1718 13.7027C75.9959 18.1696 79.9948 22.1019 79.622 27.134C79.2786 31.855 75.2633 35.8159 71.9739 38.9196C69.5723 41.1844 73.5039 45.4752 75.9846 43.2146C79.0083 40.4424 84.4623 32.7473 88.3295 32.8346C91.1886 32.8931 93.2817 35.7146 95.4069 37.601C97.7081 39.6339 100.003 41.6801 102.304 43.713C104.579 45.7335 108.437 42.3088 106.284 39.9875C102.645 36.0675 93.3071 29.9206 96.0161 23.649C98.1469 18.7253 102.905 13.9231 106.005 9.55425C107.544 7.385 104.51 4.77688 102.772 6.88617C99.7732 10.5389 96.2528 13.828 92.5223 16.7272C87.0651 20.9861 83.4802 16.5231 79.4757 13.0267C77.9277 11.684 75.5753 13.8416 76.8406 15.4999L76.8626 15.4695Z" fill="#F8F7FF"/>
<defs>
<clipPath id="clip0_408_17">
<rect width="106" height="110" fill="white" transform="translate(0 54.7383)"/>
</clipPath>
</defs>
</svg>
